HIERARCHY
ROOT joint_0
{
	OFFSET 0.000000 0.000000 0.000000
	CHANNELS 6 Xposition Yposition Zposition Zrotation Yrotation Xrotation 
	JOINT joint_1
	{
		OFFSET 1.363060 -1.794630 0.839290
		CHANNELS 3 Zrotation Yrotation Xrotation
		JOINT joint_2
		{
			OFFSET 2.448110 -6.726130 0.000000
			CHANNELS 3 Zrotation Yrotation Xrotation
			JOINT joint_3
			{
				OFFSET 2.562200 -7.039590 0.000000
				CHANNELS 3 Zrotation Yrotation Xrotation
				JOINT joint_4
				{
					OFFSET 0.157640 -0.433110 2.322550
					CHANNELS 3 Zrotation Yrotation Xrotation
					End Site
					{
						OFFSET 0.000000 0.000000 0.000000
					}
				}
			}
		}
	}
	JOINT joint_5
	{
		OFFSET -1.305520 -1.794630 0.839290
		CHANNELS 3 Zrotation Yrotation Xrotation
		JOINT joint_6
		{
			OFFSET -2.542530 -6.985550 0.000000
			CHANNELS 3 Zrotation Yrotation Xrotation
			JOINT joint_7
			{
				OFFSET -2.568260 -7.056230 0.000000
				CHANNELS 3 Zrotation Yrotation Xrotation
				JOINT joint_8
				{
					OFFSET -0.164730 -0.452590 2.363150
					CHANNELS 3 Zrotation Yrotation Xrotation
					End Site
					{
						OFFSET 0.000000 0.000000 0.000000
					}
				}
			}
		}
	}
	JOINT joint_9
	{
		OFFSET 0.028270 2.035590 -0.193380
		CHANNELS 3 Zrotation Yrotation Xrotation
		JOINT joint_10
		{
			OFFSET 0.056720 4.548850 -0.042750
			CHANNELS 3 Zrotation Yrotation Xrotation
			JOINT joint_11
			{
				OFFSET -0.054170 1.746240 0.172020
				CHANNELS 3 Zrotation Yrotation Xrotation
				JOINT joint_12
				{
					OFFSET 0.104070 1.761360 -0.123970
					CHANNELS 3 Zrotation Yrotation Xrotation
					End Site
					{
						OFFSET 0.000000 0.000000 0.000000
					}
				}
			}
			JOINT joint_13
			{
				OFFSET 3.362410 1.200890 -0.311210
				CHANNELS 3 Zrotation Yrotation Xrotation
				JOINT joint_14
				{
					OFFSET 5.783000 0.000000 0.000000
					CHANNELS 3 Zrotation Yrotation Xrotation
					JOINT joint_15
					{
						OFFSET 6.683559 0.000000 0.000000
						CHANNELS 3 Zrotation Yrotation Xrotation
						JOINT joint_16
						{
							OFFSET 0.000000 0.000000 0.000000
							CHANNELS 3 Zrotation Yrotation Xrotation
							End Site
							{
								OFFSET 0.000000 0.000000 0.000000
							}
						}
					}
				}
			}
			JOINT joint_17
			{
				OFFSET -2.136613 1.374050 -0.404650
				CHANNELS 3 Zrotation Yrotation Xrotation
				JOINT joint_18
				{
					OFFSET -0.741900 0.000000 0.000000
					CHANNELS 3 Zrotation Yrotation Xrotation
					JOINT joint_19
					{
						OFFSET -0.744170 0.000000 0.000000
						CHANNELS 3 Zrotation Yrotation Xrotation
						JOINT joint_20
						{
							OFFSET 0.000000 0.000000 0.000000
							CHANNELS 3 Zrotation Yrotation Xrotation
							End Site
							{
								OFFSET 0.000000 0.000000 0.000000
							}
						}
					}
				}
			}
		}
	}
}
MOTION
Frames: 9
Frame Time: 0.031667
0.383414 16.863363 -1.810240 -1.405944 0.763194 0.967095 -19.026296 0.726121 -3.311135 -1.089463 0.424560 5.220003 1.932563 0.237884 -1.843619 0.311175 -1.673187 -5.241192 23.942344 0.742859 -0.159139 -1.534524 -3.468469 5.963610 0.518071 -1.726578 -8.002336 0.496948 -0.229385 0.206641 1.196411 0.874841 -7.864299 -0.241144 0.501311 29.671301 3.371209 -0.497766 16.553045 2.971482 -1.693207 7.489148 -30.393030 -2.520468 8.078138 17.481854 -15.487343 -12.300057 4.206150 -0.402992 -1.620772 -6.722460 -0.008891 -0.027951 27.331287 4.415282 -3.798236 -31.192531 22.256761 -27.762900 -4.641210 -2.525270 -1.563975 6.659863 -0.043099 0.001134 
0.383318 16.859610 -1.817252 -1.379972 0.747692 0.969901 -20.780670 1.424812 -2.578772 -1.443227 -0.420323 3.270227 2.238945 0.256626 -1.946576 0.508407 -1.328803 -4.337176 25.448032 1.237747 0.936389 -3.517726 -1.658052 3.676974 0.608408 -0.712168 -7.764416 0.501923 -0.438099 0.690617 -0.376504 0.547035 -9.364060 0.808587 -0.276871 35.615793 4.671950 -0.052418 17.519259 3.813198 -1.644566 8.128215 -27.486344 -2.192717 7.135205 17.176350 -13.787349 -13.058488 5.054077 0.106189 -1.372538 -6.698019 -0.012068 -0.029807 28.496203 3.297463 -1.270646 -34.715779 21.673025 -31.189659 -5.485082 -2.690538 -0.655613 6.630532 -0.044388 0.006484 
0.359751 16.856756 -1.922252 -1.278687 2.231196 1.264987 -22.660935 2.774575 -2.246239 -0.663540 -1.204525 2.908082 3.132805 -0.325810 -1.774810 0.637394 -1.369018 -4.539443 25.417429 0.419023 -0.338996 -3.942116 -1.045436 2.408540 0.626997 -0.405665 -7.225721 0.570486 -0.654201 1.197603 -0.332737 1.096311 -11.950836 0.964915 -0.249374 40.354154 3.246341 -0.667237 18.226532 4.491073 -1.808701 8.386865 -24.754190 -2.326249 5.663916 18.074960 -13.133646 -15.162151 5.768995 0.357188 -0.190237 -6.669672 -0.014100 -0.029354 26.106701 2.233316 -0.021436 -36.885094 21.692039 -32.437914 -7.000411 -3.131216 -0.913680 6.593425 -0.047784 0.008213 
0.356616 16.846096 -1.948889 -0.875224 1.924792 0.723241 -23.627060 3.616485 -0.513544 0.160460 -2.020891 1.300033 3.043674 -0.548346 -1.145957 0.748274 -1.545496 -5.155245 26.883078 -0.135415 1.302679 -5.256602 0.655529 0.544920 0.426562 -0.146324 -6.389570 0.650551 -0.874949 1.736384 1.281564 0.710038 -12.535345 0.547393 -0.239532 43.281071 2.249469 -0.018037 20.283461 5.223949 -2.173907 8.554816 -22.409183 -2.269345 4.544416 17.352319 -11.504557 -16.021030 7.164115 0.437561 -0.832484 -6.639912 -0.014950 -0.028782 24.209947 2.800741 -1.334189 -37.732130 20.975279 -34.481049 -8.113550 -3.224366 -0.201771 6.554166 -0.048980 0.008526 
0.352688 16.855104 -1.909324 -1.206381 1.764283 0.913657 -24.642021 4.339067 -1.539706 0.867634 -2.013017 1.326959 2.300402 0.308354 -0.807922 0.828744 -1.657274 -5.583256 28.055057 0.382975 0.091262 -5.558117 0.905061 0.481343 0.844319 0.013930 -6.463805 0.737854 -1.034355 2.086878 2.063081 1.232910 -11.730137 0.527958 -0.312529 46.206424 1.259221 -1.312843 19.811447 5.953788 -2.669227 8.674429 -19.665988 -2.063646 2.620406 16.947016 -11.296523 -16.784707 8.670502 -0.165625 -0.097090 -6.614951 -0.014381 -0.025881 22.827865 2.806958 -0.410334 -37.671096 20.604307 -34.315946 -9.454771 -4.688869 -0.012147 6.520835 -0.049318 0.008318 
0.353326 16.855556 -1.907733 -1.240121 1.724975 0.923689 -24.544737 4.552193 -1.622720 0.278967 -2.285821 -0.480744 2.768644 -0.370110 -0.456098 0.903851 -1.737711 -5.925777 28.888039 -0.268713 0.167971 -6.130333 0.846751 -0.310368 1.115859 0.411507 -5.965352 0.841062 -1.122945 2.242968 0.981498 1.190708 -11.971917 -0.149779 -0.690962 48.684646 0.515495 -0.913297 21.202109 6.484134 -3.147101 8.572903 -18.663909 -2.592074 1.127692 16.971205 -10.014719 -17.599586 9.299310 0.270076 -0.545907 -6.593273 -0.013886 -0.019505 21.632502 3.376071 -0.753369 -37.297341 20.397559 -34.838954 -10.026520 -4.861624 0.214295 6.492001 -0.049424 0.008072 
0.353497 16.856457 -1.906577 -1.280150 1.729442 0.936999 -24.779757 5.088649 -1.159973 0.308593 -2.032399 -0.609184 2.049160 -0.918947 -0.651163 0.998915 -1.680833 -5.886541 29.802468 -1.209300 0.896914 -6.452754 1.420197 -0.198384 1.392981 1.571895 -5.972204 0.970775 -1.204457 2.336038 1.371337 1.430320 -11.535349 -0.200150 -0.467390 52.176846 0.698809 -1.427140 21.580172 6.951210 -3.489702 8.338933 -17.044056 -2.836794 0.337254 15.691140 -9.432754 -16.926319 9.651198 0.417517 0.283326 -6.571952 -0.012052 -0.010187 20.594876 3.775223 -0.832985 -36.437871 19.766211 -35.000816 -9.413903 -5.042421 0.688566 6.461295 -0.049535 0.008276 
0.354524 16.854355 -1.908769 -1.262170 1.675628 0.897137 -25.509578 5.192042 -1.337080 -0.039793 -1.360512 0.507722 2.081219 -1.217634 -0.209064 1.027376 -1.676091 -5.934804 30.287487 -1.128389 0.145347 -7.118969 1.605267 0.055945 0.536918 1.580692 -5.756335 1.005724 -1.238312 2.410852 0.512613 1.483953 -12.251926 -0.604417 -0.477240 53.796226 0.457918 -1.919972 22.525187 7.323360 -3.619758 8.165636 -17.166530 -2.547523 -0.251082 15.676993 -9.051449 -17.432523 9.869501 0.688613 0.358033 -6.580140 -0.013337 -0.010550 21.423489 3.444891 -0.752872 -36.984518 19.779640 -34.788711 -9.813275 -5.354856 0.745565 6.467629 -0.052637 0.008855 
0.355215 16.853754 -1.910480 -1.258266 1.650171 0.888190 -25.416881 4.908806 -1.955409 0.018145 -1.236908 -0.042059 1.942709 -1.219945 -0.551738 1.050957 -1.677552 -5.981478 30.573832 -1.394616 0.032242 -6.546658 1.912853 0.482698 0.445433 1.615469 -5.844352 1.011815 -1.241304 2.388787 0.887204 1.299081 -12.102693 -0.151864 -0.243788 53.914679 0.635561 -1.893466 22.582883 7.555755 -3.709695 8.049325 -17.623181 -2.432956 -0.405173 15.872656 -8.832151 -16.309259 9.696815 1.165236 0.002068 -6.595708 -0.013757 -0.011785 21.629035 3.376511 -0.678241 -37.970210 20.039953 -34.654840 -10.140637 -5.250398 0.626292 6.483285 -0.053698 0.007856 
